<svg width="32" height="32" viewBox="0 0 32 32" fill="none" xmlns="http://www.w3.org/2000/svg">
<path d="M16 32C24.8366 32 32 24.8366 32 16C32 7.16344 24.8366 0 16 0C7.16345 0 0 7.16344 0 16C0 24.8366 7.16345 32 16 32Z" fill="#F2F2F2"/>
<path d="M24.8459 10.5187C24.2942 10.772 23.6792 10.9257 23.0822 11.0252C23.3626 10.98 23.7787 10.4644 23.9505 10.2564C24.2038 9.93985 24.4208 9.57806 24.5384 9.18914C24.5565 9.16201 24.5655 9.11679 24.5384 9.0987C24.5022 9.08061 24.4751 9.08966 24.448 9.10774C23.7787 9.46953 23.0913 9.72278 22.3586 9.91272C22.2953 9.93081 22.2501 9.91272 22.2139 9.87654C22.1506 9.80418 22.0964 9.74087 22.033 9.6866C21.7255 9.42431 21.3909 9.21628 21.02 9.06252C20.5316 8.86354 19.998 8.78214 19.4644 8.80927C18.9488 8.84545 18.4423 8.99016 17.9901 9.22532C17.5288 9.46048 17.1218 9.79514 16.7962 10.1931C16.4615 10.6092 16.2083 11.0976 16.0817 11.6131C15.955 12.1106 15.9731 12.608 16.0455 13.1145C16.0545 13.1959 16.0455 13.214 15.9731 13.1959C13.0969 12.7708 10.7182 11.7397 8.78261 9.53284C8.70121 9.43335 8.65598 9.43335 8.58363 9.54188C7.73343 10.8081 8.14948 12.8522 9.20771 13.8471C9.35242 13.9828 9.49714 14.1185 9.6509 14.2361C9.59663 14.2451 8.89115 14.1728 8.26706 13.8471C8.18566 13.7929 8.14044 13.82 8.13139 13.9195C8.12235 14.0552 8.13139 14.1818 8.15853 14.3356C8.32133 15.6199 9.20771 16.8138 10.4287 17.2751C10.5735 17.3384 10.7363 17.3926 10.89 17.4198C10.6096 17.4831 10.3292 17.5283 9.53332 17.465C9.43383 17.4469 9.39765 17.4921 9.43383 17.5916C10.0308 19.2197 11.3242 19.7081 12.2919 19.9885C12.4186 20.0066 12.5542 20.0066 12.6809 20.0427C12.6718 20.0518 12.6628 20.0518 12.6537 20.0699C12.3281 20.5583 11.2156 20.9201 10.7001 21.101C9.75943 21.4266 8.72834 21.5803 7.73343 21.4808C7.57062 21.4537 7.54349 21.4628 7.49827 21.4808C7.45304 21.508 7.48922 21.5441 7.54349 21.5894C7.74247 21.725 7.9505 21.8426 8.15853 21.9512C8.79165 22.2858 9.45191 22.5571 10.1393 22.7471C13.7029 23.733 17.7187 23.0094 20.3869 20.3503C22.4853 18.2609 23.2269 15.3847 23.2269 12.4995C23.2269 12.391 23.3626 12.3276 23.435 12.2643C23.9776 11.8573 24.4208 11.3599 24.8278 10.8172C24.9183 10.6906 24.9183 10.582 24.9183 10.5368C24.9183 10.5278 24.9183 10.5187 24.9183 10.5187C24.9092 10.4735 24.9092 10.4916 24.8459 10.5187Z" fill="black"/>
</svg>
