<svg width="32" height="32" viewBox="0 0 32 32" fill="none" xmlns="http://www.w3.org/2000/svg">
<path d="M32 16C32 7.16337 24.8366 0 16 0C7.16337 0 0 7.16337 0 16C0 23.9864 5.85189 30.6071 13.5037 31.8101V20.6218H9.44262V16H13.5037V12.4726C13.5037 8.4658 15.8915 6.24986 19.5455 6.24986C21.3002 6.24986 23.1272 6.56642 23.1272 6.56642V10.5008H21.1102C19.1204 10.5008 18.5054 11.7309 18.5054 12.9972V16H22.9463L22.2408 20.6218H18.5144V31.801C26.1481 30.6071 32 23.9864 32 16Z" fill="#F2F2F2"/>
<path d="M22.2315 20.622L22.937 16.0001H18.4961V12.9973C18.4961 11.7311 19.1202 10.501 21.101 10.501H23.1179V6.56656C23.1179 6.56656 21.2909 6.25 19.5362 6.25C15.8822 6.25 13.4944 8.46594 13.4944 12.4727V16.0001H9.43335V20.622H13.4944V31.8012C14.3084 31.9278 15.1405 32.0001 15.9907 32.0001C16.8409 32.0001 17.673 31.9368 18.4871 31.8012V20.622H22.2315Z" fill="black"/>
</svg>
