<svg width="32" height="32" viewBox="0 0 32 32" fill="none" xmlns="http://www.w3.org/2000/svg">
<path d="M16 32C24.8366 32 32 24.8366 32 16C32 7.16344 24.8366 0 16 0C7.16344 0 0 7.16344 0 16C0 24.8366 7.16344 32 16 32Z" fill="#F2F2F2"/>
<path d="M24.566 13.7117C24.566 11.5862 22.8475 9.86768 20.722 9.86768H10.8995C8.77403 9.86768 7.05554 11.5862 7.05554 13.7117V18.2882C7.05554 20.4137 8.77403 22.1322 10.8995 22.1322H20.722C22.8475 22.1322 24.566 20.4137 24.566 18.2882V13.7117ZM18.7865 16.3437L14.3817 18.5234C14.2099 18.6139 13.622 18.4872 13.622 18.2973V13.8202C13.622 13.6212 14.2099 13.4946 14.3908 13.5941L18.6056 15.8914C18.7865 15.9909 18.9674 16.2442 18.7865 16.3437Z" fill="black"/>
</svg>
