<svg width="40" height="40" viewBox="0 0 40 40" fill="none" xmlns="http://www.w3.org/2000/svg">
<path d="M17.4833 3.71685L9.16668 6.8335C7.25001 7.55017 5.68335 9.81682 5.68335 11.8668V24.2501C5.68335 26.2168 6.98337 28.8001 8.5667 29.9835L15.7333 35.3335C18.0833 37.1002 21.95 37.1002 24.3 35.3335L31.4667 29.9835C33.05 28.8001 34.35 26.2168 34.35 24.2501V11.8668C34.35 9.81682 32.7833 7.55017 30.8667 6.8335L22.55 3.71685C21.1333 3.20018 18.8667 3.20018 17.4833 3.71685Z" stroke="#008EC4" stroke-width="2.5" stroke-linecap="round" stroke-linejoin="round"/>
<path d="M20.0001 18.2002C19.9335 18.2002 19.8501 18.2002 19.7835 18.2002C18.2168 18.1502 16.9668 16.8502 16.9668 15.2668C16.9668 13.6502 18.2835 12.3335 19.9001 12.3335C21.5168 12.3335 22.8335 13.6502 22.8335 15.2668C22.8168 16.8668 21.5668 18.1502 20.0001 18.2002Z" stroke="#008EC4" stroke-width="2.5" stroke-linecap="round" stroke-linejoin="round"/>
<path d="M16.6834 22.8668C15.0834 23.9335 15.0834 25.6835 16.6834 26.7502C18.5001 27.9668 21.4834 27.9668 23.3001 26.7502C24.9001 25.6835 24.9001 23.9335 23.3001 22.8668C21.5001 21.6502 18.5167 21.6502 16.6834 22.8668Z" stroke="#008EC4" stroke-width="2.5" stroke-linecap="round" stroke-linejoin="round"/>
</svg>
