<svg width="40" height="40" viewBox="0 0 40 40" fill="none" xmlns="http://www.w3.org/2000/svg">
<path d="M14.9999 36.6666H24.9999C33.3333 36.6666 36.6666 33.3333 36.6666 24.9999V14.9999C36.6666 6.66659 33.3333 3.33325 24.9999 3.33325H14.9999C6.66659 3.33325 3.33325 6.66659 3.33325 14.9999V24.9999C3.33325 33.3333 6.66659 36.6666 14.9999 36.6666Z" stroke="#008EC4" stroke-width="2.5" stroke-linecap="round" stroke-linejoin="round"/>
<path d="M22.7834 12.5168C21.9501 12.2668 21.0334 12.1001 20.0001 12.1001C15.4001 12.1001 11.6667 15.8334 11.6667 20.4334C11.6667 25.0334 15.4001 28.7668 20.0001 28.7668C24.6001 28.7668 28.3334 25.0334 28.3334 20.4334C28.3334 18.7168 27.8168 17.1334 26.9334 15.8001" stroke="#008EC4" stroke-width="2.5" stroke-linecap="round" stroke-linejoin="round"/>
<path d="M23.9666 12.75L21.2 9.56665" stroke="#008EC4" stroke-width="2.5" stroke-linecap="round" stroke-linejoin="round"/>
<path d="M23.9667 12.75L20.7334 15.1167" stroke="#008EC4" stroke-width="2.5" stroke-linecap="round" stroke-linejoin="round"/>
</svg>
